<svg width="46" height="47" viewBox="0 0 46 47" fill="none" xmlns="http://www.w3.org/2000/svg">
<path fill-rule="evenodd" clip-rule="evenodd" d="M9.61364 23.4667C9.61364 21.9424 9.86679 20.4811 10.3186 19.1104L2.40982 13.0709C0.868432 16.2005 0 19.7269 0 23.4667C0 27.2032 0.867364 30.7275 2.40661 33.8549L10.3112 27.8037C9.86359 26.4395 9.61364 24.9835 9.61364 23.4667Z" fill="#FBBC05"/>
<path fill-rule="evenodd" clip-rule="evenodd" d="M23.4998 9.6C26.8112 9.6 29.8021 10.7733 32.1521 12.6933L38.9885 5.86667C34.8226 2.24 29.4817 0 23.4998 0C14.2131 0 6.23162 5.31093 2.40967 13.0709L10.3185 19.1104C12.1408 13.5787 17.3354 9.6 23.4998 9.6Z" fill="#EB4335"/>
<path fill-rule="evenodd" clip-rule="evenodd" d="M23.4998 37.3333C17.3354 37.3333 12.1408 33.3547 10.3185 27.8229L2.40967 33.8613C6.23162 41.6224 14.2131 46.9333 23.4998 46.9333C29.2317 46.9333 34.704 44.8981 38.8112 41.0848L31.304 35.2811C29.1858 36.6155 26.5185 37.3333 23.4998 37.3333Z" fill="#34A853"/>
<path fill-rule="evenodd" clip-rule="evenodd" d="M45.9318 23.4667C45.9318 22.08 45.7182 20.5867 45.3977 19.2H23.5V28.2667H36.1045C35.4743 31.3579 33.7588 33.7344 31.3041 35.2811L38.8113 41.0848C43.1257 37.0805 45.9318 31.1157 45.9318 23.4667Z" fill="#4285F4"/>
</svg>
